<svg xmlns="http://www.w3.org/2000/svg" viewBox="0 0 27.006 20">
<path fill="#ff0057" d="M23.751,18.652c-0.354,0.404-0.962,0.44-1.345,0.063l-0.129-0.128
	c-0.35-0.345-0.396-0.918-0.072-1.289C23.91,15.338,24.94,12.787,24.94,10c0-2.788-1.03-5.337-2.735-7.299
	c-0.323-0.371-0.277-0.944,0.072-1.289l0.129-0.128c0.383-0.376,0.991-0.341,1.345,0.063c2.028,2.322,3.255,5.346,3.255,8.652
	S25.779,16.33,23.751,18.652z M20.863,15.66c-0.36,0.416-1.017,0.449-1.422,0.074l-0.15-0.14c-0.356-0.331-0.392-0.868-0.077-1.237
	C20.232,13.159,21,11.646,21,10s-0.768-3.159-1.786-4.357c-0.314-0.369-0.279-0.906,0.077-1.237l0.15-0.14
	c0.405-0.376,1.062-0.342,1.422,0.074C22.203,5.89,23,7.858,23,10C23,12.143,22.203,14.11,20.863,15.66z M18.103,12.577
	c-0.36,0.472-1.128,0.556-1.6,0.163l-0.167-0.139c-0.365-0.303-0.392-0.771-0.129-1.144c0.302-0.428,0.475-0.927,0.475-1.458
	c0-0.532-0.173-1.03-0.475-1.458c-0.263-0.372-0.236-0.841,0.129-1.144l0.167-0.139c0.472-0.392,1.239-0.308,1.6,0.163
	c0.57,0.745,0.9,1.629,0.9,2.577S18.673,11.832,18.103,12.577z M12,20h-1c-0.553,0-1-0.447-1-1l-4-4H2c-1.104,0-2-0.896-2-2V7
	c0-1.104,0.896-2,2-2h4l4-4c0-0.552,0.447-1,1-1h1c1.104,0,2,0.896,2,2v16C14,19.104,13.104,20,12,20z"/>
</svg>
