<svg xmlns="http://www.w3.org/2000/svg" viewBox="0 0 19.003 20">
<path fill="#ff0057" d="M18.103,12.577c-0.36,0.472-1.128,0.556-1.6,0.163l-0.167-0.139
	c-0.365-0.303-0.392-0.771-0.129-1.144c0.302-0.428,0.475-0.926,0.475-1.458s-0.173-1.03-0.475-1.458
	c-0.263-0.372-0.236-0.841,0.129-1.144l0.167-0.139c0.472-0.392,1.239-0.308,1.6,0.163c0.57,0.745,0.9,1.629,0.9,2.577
	S18.673,11.832,18.103,12.577z"/>
<path fill="#ff0057" d="M12,20h-1c-0.553,0-1-0.447-1-1l-4-4H2c-1.104,0-2-0.896-2-2V7
	c0-1.104,0.896-2,2-2h4l4-4c0-0.552,0.447-1,1-1h1c1.104,0,2,0.896,2,2v16C14,19.104,13.104,20,12,20z"/>
</svg>
